# xmcd CD database file
#
# Track frame offsets:
#	150
#	25185
#	44442
#	71335
#	105974
#	129916
#	153173
#	174112
#	190989
#	211876
#	232118
#	260457
#	281369
#
# Disc length: 3913 seconds
#
# Revision: 0
# Processed by: cddbd v1.5.1PL0 Copyright (c) Steve Scherf et al.
# Submitted via: CDex 1.51
#
DISCID=a30f470d
DTITLE=G-Sax - WHITE
DYEAR=2005
DGENRE=Jazz
TTITLE0=Rainy Day
TTITLE1=Wonderful Star
TTITLE2=Captain of her heart
TTITLE3=Latin Dreams
TTITLE4=Magic Moods
TTITLE5=Smooth Operator
TTITLE6=Day by Day
TTITLE7=Funky Space
TTITLE8=White Sax
TTITLE9=Stay Tonight
TTITLE10=Deep Blue Clouds
TTITLE11=Midnight Run
TTITLE12=Sunny Day
EXTD=YEAR: 2005
EXTT0=
EXTT1=
EXTT2=
EXTT3=
EXTT4=
EXTT5=
EXTT6=
EXTT7=
EXTT8=
EXTT9=
EXTT10=
EXTT11=
EXTT12=
PLAYORDER=
